<svg width="16" height="16" viewBox="0 0 16 16" fill="none" xmlns="http://www.w3.org/2000/svg">
<path fill-rule="evenodd" clip-rule="evenodd" d="M8.9984 15.0026C8.9984 15.5169 9.4513 15.9182 9.95012 15.793C13.4259 14.9206 16 11.7698 16 8.01645C16 3.58908 12.4183 0 8 0C3.58172 0 0 3.58908 0 8.01645C0 11.864 2.70507 15.0785 6.31343 15.8544C6.82177 15.9637 7.2704 15.5518 7.2704 15.0318V15.0114C7.2704 14.5342 7.66167 14.1474 8.13884 14.1474V14.1474C8.61114 14.1474 8.9984 14.5303 8.9984 15.0026V15.0026ZM11.6672 7.45209C11.8464 7.02882 11.9488 6.57348 11.9744 6.08608C11.9744 5.08563 11.6288 4.24551 10.9376 3.56571C10.2592 2.89875 9.3568 2.56526 8.2304 2.56526C7.1936 2.56526 6.2976 2.88592 5.5424 3.52724C4.96256 4.00979 4.52608 4.6587 4.23298 5.47395C4.08233 5.893 4.37311 6.32409 4.81161 6.40163V6.40163C5.25813 6.48059 5.67919 6.15573 5.87418 5.74634C5.99459 5.49353 6.1592 5.23482 6.368 4.97019C6.7904 4.41866 7.3472 4.1429 8.0384 4.1429C8.5504 4.1429 8.9856 4.26475 9.344 4.50845C9.7152 4.73932 9.9584 5.0215 10.0736 5.35499C10.176 5.66282 10.2272 5.95782 10.2272 6.24C10.2272 6.57348 10.1376 6.88132 9.9584 7.1635C9.792 7.48415 9.5936 7.77274 9.3632 8.02927C9.0944 8.34993 8.8512 8.61928 8.6336 8.83733L8.3072 9.18364C7.6544 9.85061 7.328 10.6202 7.328 11.4924V11.6576C7.328 12.1189 7.70193 12.4928 8.1632 12.4928V12.4928C8.62447 12.4928 8.9984 12.1189 8.9984 11.6576V11.5309C8.9984 11.0178 9.2096 10.524 9.632 10.0494C9.6704 9.99811 9.888 9.76082 10.2848 9.33755C10.7072 8.90146 10.9824 8.60004 11.1104 8.4333C11.3024 8.17677 11.488 7.8497 11.6672 7.45209Z" fill="#F1592A"/>
</svg>
