<svg width="7" height="4" viewBox="0 0 7 4" fill="none" xmlns="http://www.w3.org/2000/svg">
<path d="M3.22686 3.89139L0.111828 0.861476C0.0397233 0.791398 3.0504e-08 0.697849 2.61438e-08 0.598101C2.17837e-08 0.498353 0.0397233 0.404805 0.111828 0.334726L0.341176 0.111594C0.490622 -0.0335999 0.733514 -0.0335999 0.882733 0.111594L3.49855 2.65589L6.11727 0.108771C6.18937 0.0386923 6.28549 -2.74748e-07 6.38799 -2.79228e-07C6.4906 -2.83713e-07 6.58672 0.0386922 6.65888 0.108771L6.88817 0.331903C6.96028 0.402037 7 0.49553 7 0.595278C7 0.695026 6.96028 0.788575 6.88817 0.858653L3.77029 3.89139C3.69796 3.96164 3.60139 4.00022 3.49872 4C3.39566 4.00022 3.29914 3.96164 3.22686 3.89139Z" fill="#F1592A"/>
</svg>
